<svg id="visual" viewBox="0 0 540 960" width="540" height="960" xmlns="http://www.w3.org/2000/svg" xmlns:xlink="http://www.w3.org/1999/xlink" version="1.1"><path d="M0 164L15 154.5C30 145 60 126 90 122.8C120 119.7 150 132.3 180 130.7C210 129 240 113 270 105C300 97 330 97 360 108.2C390 119.3 420 141.7 450 151.3C480 161 510 158 525 156.5L540 155L540 0L525 0C510 0 480 0 450 0C420 0 390 0 360 0C330 0 300 0 270 0C240 0 210 0 180 0C150 0 120 0 90 0C60 0 30 0 15 0L0 0Z" fill="white"></path><path d="M0 347L15 343.7C30 340.3 60 333.7 90 352.8C120 372 150 417 180 413.8C210 410.7 240 359.3 270 348.2C300 337 330 366 360 372.5C390 379 420 363 450 375.7C480 388.3 510 429.7 525 450.3L540 471L540 153L525 154.5C510 156 480 159 450 149.3C420 139.7 390 117.3 360 106.2C330 95 300 95 270 103C240 111 210 127 180 128.7C150 130.3 120 117.7 90 120.8C60 124 30 143 15 152.5L0 162Z" fill="black"></path><path d="M0 481L15 469.8C30 458.7 60 436.3 90 457.2C120 478 150 542 180 545.2C210 548.3 240 490.7 270 474.7C300 458.7 330 484.3 360 494C390 503.7 420 497.3 450 508.5C480 519.7 510 548.3 525 562.7L540 577L540 469L525 448.3C510 427.7 480 386.3 450 373.7C420 361 390 377 360 370.5C330 364 300 335 270 346.2C240 357.3 210 408.7 180 411.8C150 415 120 370 90 350.8C60 331.7 30 338.3 15 341.7L0 345Z" fill="#ff8c61"></path><path d="M0 673L15 668.2C30 663.3 60 653.7 90 666.5C120 679.3 150 714.7 180 713.2C210 711.7 240 673.3 270 660.5C300 647.7 330 660.3 360 658.7C390 657 420 641 450 652.2C480 663.3 510 701.7 525 720.8L540 740L540 575L525 560.7C510 546.3 480 517.7 450 506.5C420 495.3 390 501.7 360 492C330 482.3 300 456.7 270 472.7C240 488.7 210 546.3 180 543.2C150 540 120 476 90 455.2C60 434.3 30 456.7 15 467.8L0 479Z" fill="white"></path><path d="M0 961L15 961C30 961 60 961 90 961C120 961 150 961 180 961C210 961 240 961 270 961C300 961 330 961 360 961C390 961 420 961 450 961C480 961 510 961 525 961L540 961L540 738L525 718.8C510 699.7 480 661.3 450 650.2C420 639 390 655 360 656.7C330 658.3 300 645.7 270 658.5C240 671.3 210 709.7 180 711.2C150 712.7 120 677.3 90 664.5C60 651.7 30 661.3 15 666.2L0 671Z" fill="black"></path></svg>